<?xml version="1.0" encoding="utf-8"?>
<!-- Generator: Adobe Illustrator 27.5.0, SVG Export Plug-In . SVG Version: 6.00 Build 0)  -->
<svg version="1.1"
	xmlns="http://www.w3.org/2000/svg"
	xmlns:xlink="http://www.w3.org/1999/xlink" x="0px" y="0px" viewBox="0 0 500 500" style="enable-background:new 0 0 500 500;" xml:space="preserve">
	<g id="BACKGROUND">
		<rect style="fill:#FFFFFF;" width="500" height="500"/>

	</g>
	<g id="OBJECTS">
		<g>
			<path style="fill:#272727;" d="M385.542,368.302h-281.4c-10.226,0-18.516-8.29-18.516-18.516V204.227
			c0-10.226,8.29-18.516,18.516-18.516h281.4c10.226,0,18.516,8.29,18.516,18.516v145.559
			C404.059,360.012,395.768,368.302,385.542,368.302z"/>
			<g>
				<g>
					<g>
						<path style="fill:#FFFFFF;" d="M379.944,357.27H109.848c-10.226,0-18.516-8.29-18.516-18.516V208.886
						c0-10.226,8.29-18.516,18.516-18.516h270.096c10.226,0,18.516,8.29,18.516,18.516v129.867
						C398.46,348.979,390.17,357.27,379.944,357.27z"/>
					</g>
					<path style="fill:#272727;" d="M392.546,375.552H96.184c-15.464,0-28-12.536-28-28v-0.109h352.362v0.109
					C420.546,363.016,408.01,375.552,392.546,375.552z"/>
				</g>
				<g>
					<g>
						<path style="fill:#FECA57;" d="M382.904,213.089c0,2.94-1.178,5.604-3.099,7.542c-1.943,1.971-4.647,3.193-7.636,3.193
						c-2.769,0-5.296-1.051-7.201-2.769c-2.169-1.971-3.534-4.806-3.534-7.966c0-5.929,4.806-10.735,10.735-10.735
						C378.098,202.354,382.904,207.16,382.904,213.089z"/>
					</g>
					<path style="fill:none;stroke:#000000;stroke-width:0.5;stroke-miterlimit:10;" d="M381.831,214.527
					c0,3.286-1.317,6.265-3.465,8.432c-2.172,2.203-5.194,3.569-8.536,3.569c-3.096,0-5.921-1.175-8.05-3.096
					c-2.425-2.203-3.951-5.373-3.951-8.905c0-6.628,5.373-12.001,12.001-12.001C376.458,202.526,381.831,207.898,381.831,214.527z" />
					<g>
						<path style="fill:#FF0056;" d="M376.298,211.437c0,2.28-1.849,4.129-4.129,4.129c-2.281,0-4.129-1.849-4.129-4.129
						c0-2.28,1.848-4.129,4.129-4.129C374.449,207.308,376.298,209.157,376.298,211.437z"/>
						<path style="fill:#FF0056;" d="M379.805,220.631c-1.943,1.971-4.647,3.193-7.636,3.193c-2.769,0-5.296-1.051-7.201-2.769
						c0.688-2.857,2.863-5.098,5.621-5.803c0.595-0.154,1.217-0.237,1.855-0.237c0.507,0,1.008,0.05,1.486,0.149
						C376.721,215.731,378.973,217.856,379.805,220.631z"/>
					</g>
				</g>
				<text transform="matrix(1 0 0 1 151.8735 309.3174)" style="fill:#272727; font-family:'OpenSans'; font-size:14.0949px;">Content Management System</text>
				<g>
					<g>
						<g>
							<rect x="123.24" y="202.313" style="fill:#FECA57;" width="64.329" height="44.985"/>
						</g>
						<path style="fill:#272727;" d="M143.843,219.048l-18.939,28.251h45.238l-18.939-28.251
						C149.448,216.43,145.598,216.43,143.843,219.048z"/>
						<path style="fill:#0090A7;" d="M155.15,218.87l-19.442,28.428h46.149l-19.442-28.428
						C160.667,216.315,156.897,216.315,155.15,218.87z"/>
						<path style="fill:#FF0056;" d="M136.286,211.31c0,2.484-2.014,4.498-4.499,4.498c-2.484,0-4.499-2.014-4.499-4.498
						c0-2.485,2.014-4.499,4.499-4.499C134.272,206.811,136.286,208.825,136.286,211.31z"/>
					</g>

					<rect x="120.05" y="206.204" style="fill:none;stroke:#000000;stroke-width:0.5;stroke-miterlimit:10;" width="64.329" height="44.985"/>
				</g>
				<g>
					<g>
						<g>
							<rect x="199.756" y="213.34" style="fill:#E0E0E0;" width="31.541" height="18.925"/>
						</g>
						<g>
							<path style="fill:#BCBCBC;" d="M211.875,218.458l-9.313,13.892h20.678l-9.314-13.892
							C213.437,217.728,212.364,217.728,211.875,218.458z"/>
						</g>
						<g>
							<path style="fill:#CECECE;" d="M217.036,218.406L207.5,232.35h21.094l-9.536-13.944
							C218.571,217.695,217.522,217.695,217.036,218.406z"/>
						</g>
						<g>
							<path style="fill:#BCBCBC;" d="M207.764,215.9c0,1.136-0.921,2.056-2.056,2.056c-1.135,0-2.056-0.921-2.056-2.056
							c0-1.136,0.921-2.056,2.056-2.056C206.843,213.844,207.764,214.765,207.764,215.9z"/>
						</g>
					</g>
					<g>
						<g>
							<rect x="234.902" y="213.34" style="fill:#E0E0E0;" width="31.541" height="18.925"/>
						</g>
						<g>
							<path style="fill:#BCBCBC;" d="M247.021,218.458l-9.314,13.892h20.678l-9.314-13.892
							C248.583,217.728,247.51,217.728,247.021,218.458z"/>
						</g>
						<g>
							<path style="fill:#CECECE;" d="M252.182,218.406l-9.536,13.944h21.094l-9.536-13.944
							C253.717,217.695,252.668,217.695,252.182,218.406z"/>
						</g>
						<g>
							<path style="fill:#BCBCBC;" d="M242.91,215.9c0,1.136-0.921,2.056-2.056,2.056c-1.136,0-2.056-0.921-2.056-2.056
							c0-1.136,0.921-2.056,2.056-2.056C241.99,213.844,242.91,214.765,242.91,215.9z"/>
						</g>
					</g>
					<g>
						<rect x="199.756" y="204.328" style="fill:#E0E0E0;" width="66.687" height="1.802"/>
					</g>
					<g>
						<rect x="199.756" y="239.474" style="fill:#E0E0E0;" width="61.28" height="1.802"/>
					</g>
					<g>
						<rect x="283.566" y="212.439" style="fill:#E0E0E0;" width="61.28" height="1.802"/>
					</g>
					<g>
						<rect x="199.756" y="246.684" style="fill:#E0E0E0;" width="45.059" height="1.802"/>
					</g>
					<g>
						<rect x="283.566" y="219.648" style="fill:#E0E0E0;" width="45.059" height="1.802"/>
					</g>
					<g>
						<rect x="283.566" y="205.229" style="fill:#E0E0E0;" width="59.478" height="1.802"/>
					</g>
				</g>
				<text transform="matrix(1 0 0 1 196.21 287.8066)" style="fill:#FF0056; font-family:'OpenSans-Bold'; font-size:45.0328px;">CMS</text>
			</g>
		</g>
		<g>
			<g>
				<g>
					<path style="fill:#0090A7;" d="M462,276.323c0,6.426-5.218,11.643-11.643,11.643c-0.072,0-0.144,0-0.216-0.009v0.009H390.23
					c-0.505,0-1-0.036-1.487-0.099c-5.732-0.73-10.156-5.623-10.156-11.544c0-6.434,5.209-11.643,11.643-11.643
					c1.433,0,2.812,0.261,4.082,0.739c-0.315-1.325-0.487-2.704-0.487-4.128c0-9.823,7.966-17.789,17.789-17.789
					c7.741,0,14.338,4.956,16.771,11.878c1.892-1.352,4.227-2.136,6.723-2.136c6.434,0,11.643,5.209,11.643,11.643
					c0,0.126,0,0.243-0.009,0.369c1.135-0.379,2.352-0.577,3.614-0.577C456.782,264.68,462,269.889,462,276.323z"/>
					<path style="fill:#0090A7;" d="M390.23,287.967h-1.487v-0.099C389.23,287.931,389.725,287.967,390.23,287.967z"/>
				</g>
				<g>
					<path style="fill:none;stroke:#000000;stroke-width:0.5;stroke-miterlimit:10;" d="M454.79,279.928
					c0,6.425-5.218,11.643-11.643,11.643c-0.072,0-0.144,0-0.216-0.009v0.009H383.02c-0.505,0-1-0.036-1.487-0.099
					c-5.731-0.73-10.156-5.623-10.156-11.544c0-6.435,5.209-11.643,11.643-11.643c1.433,0,2.812,0.261,4.082,0.739
					c-0.315-1.325-0.487-2.704-0.487-4.127c0-9.823,7.966-17.789,17.789-17.789c7.741,0,14.338,4.957,16.771,11.878
					c1.893-1.352,4.227-2.136,6.723-2.136c6.434,0,11.643,5.209,11.643,11.643c0,0.126,0,0.243-0.009,0.37
					c1.136-0.379,2.352-0.577,3.614-0.577C449.573,268.285,454.79,273.494,454.79,279.928z"/>
					<path style="fill:none;stroke:#000000;stroke-width:0.5;stroke-miterlimit:10;" d="M383.02,291.571h-1.487v-0.099
					C382.02,291.535,382.516,291.571,383.02,291.571z"/>
				</g>
			</g>
			<g>
				<g>
					<path style="fill:none;stroke:#000000;stroke-width:0.5;stroke-miterlimit:10;" d="M139.828,167.633
					c0,0.995-0.807,1.802-1.802,1.802c-0.995,0-1.802-0.807-1.802-1.802c0-0.996,0.807-1.802,1.802-1.802
					C139.021,165.83,139.828,166.637,139.828,167.633z"/>
					<path style="fill:none;stroke:#000000;stroke-width:0.5;stroke-miterlimit:10;" d="M139.828,174.842
					c0,0.995-0.807,1.802-1.802,1.802c-0.995,0-1.802-0.807-1.802-1.802c0-0.995,0.807-1.802,1.802-1.802
					C139.021,173.04,139.828,173.846,139.828,174.842z"/>
					<path style="fill:none;stroke:#000000;stroke-width:0.5;stroke-miterlimit:10;" d="M139.828,182.051
					c0,0.995-0.807,1.802-1.802,1.802c-0.995,0-1.802-0.807-1.802-1.802c0-0.996,0.807-1.802,1.802-1.802
					C139.021,180.249,139.828,181.056,139.828,182.051z"/>
				</g>
				<rect x="98.824" y="105.565" style="fill:#0090A7;" width="79.304" height="54.56"/>

				<rect x="95.219" y="109.169" style="fill:none;stroke:#000000;stroke-width:0.5;stroke-miterlimit:10;" width="79.304" height="54.56"/>
				<g>
					<polygon style="fill:#FF0056;" points="160.205,119.726 160.205,147.876 134.29,147.876 134.29,112.538 152.428,112.538 				"/>
					<polygon style="fill:#272727;" points="160.232,119.75 160.205,119.753 151.904,120.839 152.328,112.538 152.334,112.449 
					152.428,112.538 160.205,119.726 				"/>
				</g>
				<g>
					<g>
						<polygon style="fill:#FFFFFF;" points="143.479,125.808 143.479,153.958 117.565,153.958 117.565,118.62 135.702,118.62 					
						"/>
					</g>
					<polygon style="fill:#272727;" points="143.506,125.832 143.479,125.835 135.178,126.921 135.602,118.62 135.608,118.531 
					135.702,118.62 143.479,125.808 				"/>
				</g>
			</g>
			<g>
				<rect x="47.457" y="286.336" style="fill:#0090A7;" width="95.525" height="51.367"/>

				<rect x="42.5" y="291.292" style="fill:none;stroke:#000000;stroke-width:0.5;stroke-miterlimit:10;" width="95.525" height="51.367"/>

				<line style="fill:none;stroke:#FFFFFF;stroke-width:0.5;stroke-miterlimit:10;" x1="75.393" y1="302.695" x2="95.219" y2="302.695"/>

				<line style="fill:none;stroke:#FFFFFF;stroke-width:0.5;stroke-miterlimit:10;" x1="98.824" y1="303.007" x2="135.772" y2="303.007"/>

				<line style="fill:none;stroke:#FFFFFF;stroke-width:0.5;stroke-miterlimit:10;" x1="75.393" y1="309.316" x2="112.342" y2="309.316"/>

				<line style="fill:none;stroke:#FFFFFF;stroke-width:0.5;stroke-miterlimit:10;" x1="52.864" y1="316.525" x2="89.812" y2="316.525"/>

				<line style="fill:none;stroke:#FFFFFF;stroke-width:0.5;stroke-miterlimit:10;" x1="95.219" y1="316.525" x2="136.673" y2="316.525"/>

				<line style="fill:none;stroke:#FFFFFF;stroke-width:0.5;stroke-miterlimit:10;" x1="52.864" y1="322.833" x2="115.045" y2="322.833"/>
				<text transform="matrix(1 0 0 1 53.248 308.9736)" style="fill:#272727; font-family:'OpenSans-Bold'; font-size:13.3813px;">Aa</text>
				<text transform="matrix(1 0 0 1 55.0503 308.9736)" style="fill:#FFFFFF; font-family:'OpenSans-Bold'; font-size:13.3813px;">Aa</text>
			</g>
			<g>
				<g>
					<path style="fill:none;stroke:#000000;stroke-width:0.5;stroke-miterlimit:10;" d="M357.419,166.929
					c0,0.995-0.807,1.802-1.802,1.802c-0.996,0-1.802-0.807-1.802-1.802c0-0.995,0.807-1.802,1.802-1.802
					C356.612,165.127,357.419,165.934,357.419,166.929z"/>
					<path style="fill:none;stroke:#000000;stroke-width:0.5;stroke-miterlimit:10;" d="M357.419,174.138
					c0,0.995-0.807,1.802-1.802,1.802c-0.996,0-1.802-0.807-1.802-1.802c0-0.995,0.807-1.802,1.802-1.802
					C356.612,172.336,357.419,173.143,357.419,174.138z"/>
					<path style="fill:none;stroke:#000000;stroke-width:0.5;stroke-miterlimit:10;" d="M357.419,181.348
					c0,0.996-0.807,1.802-1.802,1.802c-0.996,0-1.802-0.807-1.802-1.802c0-0.995,0.807-1.802,1.802-1.802
					C356.612,179.546,357.419,180.352,357.419,181.348z"/>
				</g>
				<g>
					<g>
						<rect x="312.714" y="100.691" style="fill:#130F40;" width="82.377" height="57.606"/>
					</g>
				</g>
				<rect x="314.206" y="101.96" style="fill:#272727;" width="79.304" height="54.56"/>
				<rect x="316.341" y="152.059" style="fill:#FFFFFF;" width="74.466" height="1.802"/>
				<rect x="316.009" y="152.059" style="fill:#FF0056;" width="32.443" height="1.802"/>
				<g>
					<polygon style="fill:#FF0056;" points="364.036,129.211 348.526,138.166 348.526,120.256 				"/>

					<ellipse transform="matrix(0.9223 -0.3864 0.3864 0.9223 -21.7647 146.7385)" style="fill:none;stroke:#FFFFFF;stroke-width:0.5;stroke-miterlimit:10;" cx="354.083" cy="127.502" rx="15.996" ry="15.996"/>
				</g>
				<g>
					<g>
						<rect x="316.341" y="95.056" style="fill:#FFFFFF;" width="85.909" height="10.644"/>
					</g>
					<path style="fill:#FF0056;" d="M324.42,100.091c0,0.829-0.672,1.502-1.502,1.502c-0.83,0-1.502-0.673-1.502-1.502
					s0.672-1.502,1.502-1.502C323.747,98.589,324.42,99.262,324.42,100.091z"/>
					<path style="fill:#FECA57;" d="M330.427,100.091c0,0.829-0.672,1.502-1.502,1.502s-1.502-0.673-1.502-1.502
					s0.672-1.502,1.502-1.502S330.427,99.262,330.427,100.091z"/>
					<path style="fill:#0090A7;" d="M336.736,100.091c0,0.829-0.672,1.502-1.502,1.502s-1.502-0.673-1.502-1.502
					s0.672-1.502,1.502-1.502S336.736,99.262,336.736,100.091z"/>
				</g>
			</g>
			<g>
				<rect x="215.076" y="67.715" style="fill:#FF0056;" width="79.304" height="54.56"/>
				<g>
					<polygon style="fill:#272727;" points="244.815,90.763 231.321,98.553 244.815,106.344 244.815,109.578 225.72,98.553 
					244.815,87.529 				"/>
					<polygon style="fill:#272727;" points="265.542,85.671 279.036,93.462 265.542,101.253 265.542,104.486 284.637,93.462 
					265.542,82.438 				"/>

					<rect x="254.479" y="79.117" transform="matrix(0.9015 0.4327 -0.4327 0.9015 66.4543 -101.2147)" style="fill:#272727;" width="2.291" height="32.589"/>
				</g>

				<rect x="210.57" y="71.32" style="fill:none;stroke:#000000;stroke-width:0.5;stroke-miterlimit:10;" width="79.304" height="54.56"/>
				<g>
					<path style="fill:none;stroke:#000000;stroke-width:0.5;stroke-miterlimit:10;" d="M255.179,130.882
					c0,0.995-0.807,1.802-1.802,1.802c-0.995,0-1.802-0.807-1.802-1.802c0-0.995,0.807-1.802,1.802-1.802
					C254.372,129.079,255.179,129.886,255.179,130.882z"/>
					<path style="fill:none;stroke:#000000;stroke-width:0.5;stroke-miterlimit:10;" d="M255.179,138.091
					c0,0.995-0.807,1.802-1.802,1.802c-0.995,0-1.802-0.807-1.802-1.802c0-0.995,0.807-1.802,1.802-1.802
					C254.372,136.289,255.179,137.096,255.179,138.091z"/>
					<path style="fill:none;stroke:#000000;stroke-width:0.5;stroke-miterlimit:10;" d="M255.179,145.301
					c0,0.995-0.807,1.802-1.802,1.802c-0.995,0-1.802-0.807-1.802-1.802c0-0.995,0.807-1.802,1.802-1.802
					C254.372,143.498,255.179,144.305,255.179,145.301z"/>
					<path style="fill:none;stroke:#000000;stroke-width:0.5;stroke-miterlimit:10;" d="M255.179,152.51
					c0,0.995-0.807,1.802-1.802,1.802c-0.995,0-1.802-0.807-1.802-1.802c0-0.995,0.807-1.802,1.802-1.802
					C254.372,150.708,255.179,151.515,255.179,152.51z"/>
					<path style="fill:none;stroke:#000000;stroke-width:0.5;stroke-miterlimit:10;" d="M255.179,159.719
					c0,0.995-0.807,1.802-1.802,1.802c-0.995,0-1.802-0.807-1.802-1.802c0-0.995,0.807-1.802,1.802-1.802
					C254.372,157.917,255.179,158.724,255.179,159.719z"/>
					<path style="fill:none;stroke:#000000;stroke-width:0.5;stroke-miterlimit:10;" d="M255.179,166.929
					c0,0.995-0.807,1.802-1.802,1.802c-0.995,0-1.802-0.807-1.802-1.802c0-0.995,0.807-1.802,1.802-1.802
					C254.372,165.127,255.179,165.934,255.179,166.929z"/>
					<path style="fill:none;stroke:#000000;stroke-width:0.5;stroke-miterlimit:10;" d="M255.179,174.138
					c0,0.995-0.807,1.802-1.802,1.802c-0.995,0-1.802-0.807-1.802-1.802c0-0.995,0.807-1.802,1.802-1.802
					C254.372,172.336,255.179,173.143,255.179,174.138z"/>
					<path style="fill:none;stroke:#000000;stroke-width:0.5;stroke-miterlimit:10;" d="M255.179,181.348
					c0,0.996-0.807,1.802-1.802,1.802c-0.995,0-1.802-0.807-1.802-1.802c0-0.995,0.807-1.802,1.802-1.802
					C254.372,179.546,255.179,180.352,255.179,181.348z"/>
				</g>
				<g>
					<g>
						<rect x="219.013" y="62.613" style="fill:#FFFFFF;" width="85.909" height="10.644"/>
					</g>
					<path style="fill:#FF0056;" d="M227.092,67.649c0,0.83-0.673,1.502-1.502,1.502c-0.83,0-1.502-0.672-1.502-1.502
					c0-0.829,0.672-1.502,1.502-1.502C226.419,66.147,227.092,66.819,227.092,67.649z"/>
					<path style="fill:#FECA57;" d="M233.1,67.649c0,0.83-0.673,1.502-1.502,1.502c-0.83,0-1.502-0.672-1.502-1.502
					c0-0.829,0.672-1.502,1.502-1.502C232.427,66.147,233.1,66.819,233.1,67.649z"/>
					<path style="fill:#0090A7;" d="M239.408,67.649c0,0.83-0.673,1.502-1.502,1.502s-1.502-0.672-1.502-1.502
					c0-0.829,0.673-1.502,1.502-1.502S239.408,66.819,239.408,67.649z"/>
				</g>
			</g>
			<g>
				<g>
					<polygon style="fill:#FF0056;" points="97.021,220.045 97.021,250.423 76.015,250.423 69.346,261.977 62.678,250.423 
					52.864,250.423 52.864,220.045 				"/>
				</g>
				<g>
					<polygon style="fill:none;stroke:#000000;stroke-width:0.5;stroke-miterlimit:10;" points="93.417,222.748 93.417,253.127 
					72.41,253.127 65.742,264.68 59.073,253.127 49.259,253.127 49.259,222.748 				"/>
				</g>
				<g>
					<path style="fill:#FFFFFF;" d="M65.48,234.968c0,1.991-1.614,3.605-3.605,3.605s-3.605-1.614-3.605-3.605
					s1.614-3.605,3.605-3.605S65.48,232.977,65.48,234.968z"/>
				</g>
				<g>
					<path style="fill:#FFFFFF;" d="M78.998,234.968c0,1.991-1.614,3.605-3.605,3.605c-1.991,0-3.605-1.614-3.605-3.605
					s1.614-3.605,3.605-3.605C77.384,231.363,78.998,232.977,78.998,234.968z"/>
				</g>
				<g>
					<path style="fill:#FFFFFF;" d="M92.516,234.968c0,1.991-1.614,3.605-3.605,3.605c-1.991,0-3.605-1.614-3.605-3.605
					s1.614-3.605,3.605-3.605C90.902,231.363,92.516,232.977,92.516,234.968z"/>
				</g>
			</g>
			<g>
				<g>
					<g>
						<rect x="308.752" y="332.296" style="fill:#FECA57;" width="130.719" height="70.292"/>
					</g>
					<g>

						<text transform="matrix(1 0 0 1 317.3418 356.9658)" style="fill:#272727; font-family:'OpenSans-Bold'; font-size:18.3113px;">WWW</text>
					</g>
					<text transform="matrix(1 0 0 1 319.1445 356.9658)" style="fill:#FFFFFF; font-family:'OpenSans-Bold'; font-size:18.3113px;">WWW</text>
					<g>
						<rect x="396.214" y="379.157" style="fill:#FFFFFF;" width="38.751" height="1.802"/>
					</g>
					<g>
						<rect x="396.214" y="386.367" style="fill:#FFFFFF;" width="28.493" height="1.802"/>
					</g>
					<g>
						<rect x="396.214" y="364.738" style="fill:#FFFFFF;" width="28.493" height="1.802"/>
					</g>
					<g>
						<rect x="396.214" y="371.948" style="fill:#FFFFFF;" width="37.611" height="1.802"/>
					</g>
					<rect x="396.214" y="342.209" style="fill:#FF0056;" width="27.937" height="17.122"/>
				</g>

				<rect x="299.787" y="335.45" style="fill:none;stroke:#000000;stroke-width:0.5;stroke-miterlimit:10;" width="134.727" height="72.499"/>
				<g>
					<rect x="317.36" y="364.759" style="fill:#FFFFFF;" width="52.719" height="24.762"/>
				</g>

				<rect x="310.151" y="366.165" style="fill:none;stroke:#000000;stroke-width:0.5;stroke-miterlimit:10;" width="54.521" height="25.609"/>
				<g>
					<path style="fill:none;stroke:#000000;stroke-width:0.5;stroke-miterlimit:10;" d="M235.353,377.805
					c0,0.995-0.807,1.802-1.802,1.802c-0.995,0-1.802-0.807-1.802-1.802c0-0.995,0.807-1.802,1.802-1.802
					C234.546,376.003,235.353,376.81,235.353,377.805z"/>
					<path style="fill:none;stroke:#000000;stroke-width:0.5;stroke-miterlimit:10;" d="M235.353,385.015
					c0,0.995-0.807,1.802-1.802,1.802c-0.995,0-1.802-0.807-1.802-1.802c0-0.995,0.807-1.802,1.802-1.802
					C234.546,383.212,235.353,384.019,235.353,385.015z"/>
					<path style="fill:none;stroke:#000000;stroke-width:0.5;stroke-miterlimit:10;" d="M235.353,392.224
					c0,0.995-0.807,1.802-1.802,1.802c-0.995,0-1.802-0.807-1.802-1.802s0.807-1.802,1.802-1.802
					C234.546,390.422,235.353,391.229,235.353,392.224z"/>
					<path style="fill:none;stroke:#000000;stroke-width:0.5;stroke-miterlimit:10;" d="M235.353,399.434
					c0,0.995-0.807,1.802-1.802,1.802c-0.995,0-1.802-0.807-1.802-1.802c0-0.996,0.807-1.802,1.802-1.802
					C234.546,397.631,235.353,398.438,235.353,399.434z"/>
				</g>
				<g>
					<path style="fill:none;stroke:#000000;stroke-width:0.5;stroke-miterlimit:10;" d="M242.562,397.631
					c0.995,0,1.802,0.807,1.802,1.802c0,0.995-0.807,1.802-1.802,1.802c-0.995,0-1.802-0.807-1.802-1.802
					C240.76,398.438,241.567,397.631,242.562,397.631z"/>
					<path style="fill:none;stroke:#000000;stroke-width:0.5;stroke-miterlimit:10;" d="M249.772,397.631
					c0.995,0,1.802,0.807,1.802,1.802c0,0.995-0.807,1.802-1.802,1.802c-0.995,0-1.802-0.807-1.802-1.802
					C247.969,398.438,248.776,397.631,249.772,397.631z"/>
					<path style="fill:none;stroke:#000000;stroke-width:0.5;stroke-miterlimit:10;" d="M256.981,397.631
					c0.995,0,1.802,0.807,1.802,1.802c0,0.995-0.807,1.802-1.802,1.802c-0.995,0-1.802-0.807-1.802-1.802
					C255.179,398.438,255.986,397.631,256.981,397.631z"/>
					<path style="fill:none;stroke:#000000;stroke-width:0.5;stroke-miterlimit:10;" d="M264.191,397.631
					c0.995,0,1.802,0.807,1.802,1.802c0,0.995-0.807,1.802-1.802,1.802c-0.996,0-1.802-0.807-1.802-1.802
					C262.388,398.438,263.195,397.631,264.191,397.631z"/>
					<path style="fill:none;stroke:#000000;stroke-width:0.5;stroke-miterlimit:10;" d="M271.4,397.631
					c0.995,0,1.802,0.807,1.802,1.802c0,0.995-0.807,1.802-1.802,1.802c-0.995,0-1.802-0.807-1.802-1.802
					C269.598,398.438,270.405,397.631,271.4,397.631z"/>
					<path style="fill:none;stroke:#000000;stroke-width:0.5;stroke-miterlimit:10;" d="M278.61,397.631
					c0.995,0,1.802,0.807,1.802,1.802c0,0.995-0.807,1.802-1.802,1.802c-0.995,0-1.802-0.807-1.802-1.802
					C276.807,398.438,277.614,397.631,278.61,397.631z"/>
					<path style="fill:none;stroke:#000000;stroke-width:0.5;stroke-miterlimit:10;" d="M285.819,397.631
					c0.995,0,1.802,0.807,1.802,1.802c0,0.995-0.807,1.802-1.802,1.802c-0.995,0-1.802-0.807-1.802-1.802
					C284.017,398.438,284.824,397.631,285.819,397.631z"/>
					<path style="fill:none;stroke:#000000;stroke-width:0.5;stroke-miterlimit:10;" d="M293.029,397.631
					c0.995,0,1.802,0.807,1.802,1.802c0,0.995-0.807,1.802-1.802,1.802c-0.996,0-1.802-0.807-1.802-1.802
					C291.226,398.438,292.033,397.631,293.029,397.631z"/>
				</g>

				<line style="fill:none;stroke:#000000;stroke-width:0.5;stroke-miterlimit:10;" x1="392.158" y1="376.904" x2="428.693" y2="376.904"/>

				<line style="fill:none;stroke:#000000;stroke-width:0.5;stroke-miterlimit:10;" x1="392.158" y1="368.794" x2="428.693" y2="368.794"/>

				<line style="fill:none;stroke:#000000;stroke-width:0.5;stroke-miterlimit:10;" x1="392.158" y1="384.114" x2="428.693" y2="384.114"/>
			</g>
		</g>
	</g>
</svg>
